# xmcd
#
# Track frame offsets:
#	150
#	17813
#	33895
#	60573
#	76555
#	93096
#	112207
#	126999
#	143482
#	156460
#	174204
#	189636
#	204616
#	222611
#	237185
#	253063
#	269094
#	283591
#	300278
#	315792
#	331861
#
# Disc length: 4632 seconds
# Revision: 0
# Processed by: cddbd v1.5.2PL0 Copyright (c) Steve Scherf et al.
# Submitted via: dBpowerAMP V12.0
#
DISCID=21121615
DTITLE=Various Artist - Auf die nächsten 1000 Jahre CD2
DYEAR=2007
DGENRE=Discofox
TTITLE0=Olaf Henning - Lady Treulos
TTITLE1=Olaf Henning - Nur wegen dir
TTITLE2=Olaf Henning - Herzdame (Party-Remix)
TTITLE3=Olaf Henning - Das kannst du vergessen
TTITLE4=Olaf Henning - Nur mit dir
TTITLE5=Olaf Henning - In meinem Traum
TTITLE6=Olaf Henning - Plötzlich
TTITLE7=Olaf Henning - Nichts ist vergessen
TTITLE8=Olaf Henning - Vorbei ist vorbei
TTITLE9=Olaf Henning - Blinder Passagier (Album-Version)
TTITLE10=Olaf Henning - Ich mach den gleichen Fehler nochmal
TTITLE11=Olaf Henning - Das kann doch nicht dein Ernst sein
TTITLE12=Olaf Henning - (What about...) Sexy
TTITLE13=Olaf Henning - Traumprinz
TTITLE14=Olaf Henning - Ich halt' dich fest
TTITLE15=Olaf Henning - Das kannst du glauben oder nicht
TTITLE16=Olaf Henning and Fancy - Only for Love
TTITLE17=Olaf Henning - Ich bin nicht mehr dein Clown (Original Version)
TTITLE18=Olaf Henning - Ich war dein König
TTITLE19=Olaf Henning - Mach das nicht nochmal
TTITLE20=Olaf Henning - Was ist los mit dir
EXTD=
EXTT0=
EXTT1=
EXTT2=
EXTT3=
EXTT4=
EXTT5=
EXTT6=
EXTT7=
EXTT8=
EXTT9=
EXTT10=
EXTT11=
EXTT12=
EXTT13=
EXTT14=
EXTT15=
EXTT16=
EXTT17=
EXTT18=
EXTT19=
EXTT20=
PLAYORDER=
